<mxfile host="app.diagrams.net" modified="2023-11-22T06:25:19.357Z" agent="Mozilla/5.0 (Windows NT 10.0; Win64; x64) AppleWebKit/537.36 (KHTML, like Gecko) Chrome/119.0.0.0 Safari/537.36 Edg/119.0.0.0" etag="3AeMHCTSip97VBkLXVdL" version="22.1.3" type="github">
  <diagram name="Page-1" id="Rd8LgTK5qH4krfweTuie">
    <mxGraphModel dx="1829" dy="556" grid="1" gridSize="10" guides="1" tooltips="1" connect="1" arrows="1" fold="1" page="1" pageScale="1" pageWidth="850" pageHeight="1100" math="0" shadow="0">
      <root>
        <mxCell id="0" />
        <mxCell id="1" parent="0" />
        <mxCell id="-Wp_tUwX_cRNd32ZsQbs-26" value="" style="rounded=0;whiteSpace=wrap;html=1;" vertex="1" parent="1">
          <mxGeometry x="91" y="325" width="555" height="175" as="geometry" />
        </mxCell>
        <mxCell id="-Wp_tUwX_cRNd32ZsQbs-12" value="" style="rounded=0;whiteSpace=wrap;html=1;" vertex="1" parent="1">
          <mxGeometry x="90" y="190" width="555" height="110" as="geometry" />
        </mxCell>
        <mxCell id="-Wp_tUwX_cRNd32ZsQbs-1" value="User" style="rounded=0;whiteSpace=wrap;html=1;" vertex="1" parent="1">
          <mxGeometry x="100" y="90" width="120" height="60" as="geometry" />
        </mxCell>
        <mxCell id="-Wp_tUwX_cRNd32ZsQbs-8" style="edgeStyle=orthogonalEdgeStyle;rounded=0;orthogonalLoop=1;jettySize=auto;html=1;entryX=0;entryY=0.5;entryDx=0;entryDy=0;" edge="1" parent="1" source="-Wp_tUwX_cRNd32ZsQbs-3" target="-Wp_tUwX_cRNd32ZsQbs-4">
          <mxGeometry relative="1" as="geometry" />
        </mxCell>
        <mxCell id="-Wp_tUwX_cRNd32ZsQbs-15" style="edgeStyle=orthogonalEdgeStyle;rounded=0;orthogonalLoop=1;jettySize=auto;html=1;exitX=0.5;exitY=1;exitDx=0;exitDy=0;" edge="1" parent="1" source="-Wp_tUwX_cRNd32ZsQbs-3">
          <mxGeometry relative="1" as="geometry">
            <mxPoint x="170.33333333333337" y="350" as="targetPoint" />
          </mxGeometry>
        </mxCell>
        <mxCell id="-Wp_tUwX_cRNd32ZsQbs-3" value="Trip id&lt;br&gt;Generated" style="rounded=0;whiteSpace=wrap;html=1;" vertex="1" parent="1">
          <mxGeometry x="110" y="220" width="120" height="60" as="geometry" />
        </mxCell>
        <mxCell id="-Wp_tUwX_cRNd32ZsQbs-4" value="Service&lt;br&gt;Generated" style="rounded=0;whiteSpace=wrap;html=1;" vertex="1" parent="1">
          <mxGeometry x="290" y="220" width="120" height="60" as="geometry" />
        </mxCell>
        <mxCell id="-Wp_tUwX_cRNd32ZsQbs-5" value="Trip request&amp;nbsp;&lt;br&gt;Generated" style="rounded=0;whiteSpace=wrap;html=1;" vertex="1" parent="1">
          <mxGeometry x="450" y="220" width="120" height="60" as="geometry" />
        </mxCell>
        <mxCell id="-Wp_tUwX_cRNd32ZsQbs-6" style="edgeStyle=orthogonalEdgeStyle;rounded=0;orthogonalLoop=1;jettySize=auto;html=1;" edge="1" parent="1" target="-Wp_tUwX_cRNd32ZsQbs-12">
          <mxGeometry relative="1" as="geometry">
            <mxPoint x="169.98000000000002" y="150" as="sourcePoint" />
            <mxPoint x="163.90000000000003" y="211.07999999999998" as="targetPoint" />
            <Array as="points">
              <mxPoint x="164" y="150" />
            </Array>
          </mxGeometry>
        </mxCell>
        <mxCell id="-Wp_tUwX_cRNd32ZsQbs-9" style="edgeStyle=orthogonalEdgeStyle;rounded=0;orthogonalLoop=1;jettySize=auto;html=1;entryX=-0.022;entryY=0.49;entryDx=0;entryDy=0;entryPerimeter=0;" edge="1" parent="1" source="-Wp_tUwX_cRNd32ZsQbs-4" target="-Wp_tUwX_cRNd32ZsQbs-5">
          <mxGeometry relative="1" as="geometry" />
        </mxCell>
        <mxCell id="-Wp_tUwX_cRNd32ZsQbs-16" value="User Request flow" style="text;html=1;strokeColor=none;fillColor=none;align=center;verticalAlign=middle;whiteSpace=wrap;rounded=0;" vertex="1" parent="1">
          <mxGeometry x="490" y="190" width="120" height="30" as="geometry" />
        </mxCell>
        <mxCell id="-Wp_tUwX_cRNd32ZsQbs-18" style="edgeStyle=orthogonalEdgeStyle;rounded=0;orthogonalLoop=1;jettySize=auto;html=1;exitX=1;exitY=0.5;exitDx=0;exitDy=0;" edge="1" parent="1" source="-Wp_tUwX_cRNd32ZsQbs-17" target="-Wp_tUwX_cRNd32ZsQbs-19">
          <mxGeometry relative="1" as="geometry">
            <mxPoint x="320" y="380.28571428571433" as="targetPoint" />
          </mxGeometry>
        </mxCell>
        <mxCell id="-Wp_tUwX_cRNd32ZsQbs-23" style="edgeStyle=orthogonalEdgeStyle;rounded=0;orthogonalLoop=1;jettySize=auto;html=1;exitX=1;exitY=0.5;exitDx=0;exitDy=0;entryX=0;entryY=0.5;entryDx=0;entryDy=0;" edge="1" parent="1" source="-Wp_tUwX_cRNd32ZsQbs-17" target="-Wp_tUwX_cRNd32ZsQbs-22">
          <mxGeometry relative="1" as="geometry" />
        </mxCell>
        <mxCell id="-Wp_tUwX_cRNd32ZsQbs-17" value="View trip summary" style="rounded=0;whiteSpace=wrap;html=1;" vertex="1" parent="1">
          <mxGeometry x="111" y="350" width="120" height="60" as="geometry" />
        </mxCell>
        <mxCell id="-Wp_tUwX_cRNd32ZsQbs-19" value="&lt;div style=&quot;&quot;&gt;&lt;span style=&quot;background-color: initial; font-size: 10px;&quot;&gt;Status&lt;/span&gt;&lt;/div&gt;&lt;div style=&quot;&quot;&gt;&lt;span style=&quot;background-color: initial; font-size: 10px;&quot;&gt;(approval/rejected)&lt;/span&gt;&lt;/div&gt;" style="rounded=0;whiteSpace=wrap;html=1;align=center;" vertex="1" parent="1">
          <mxGeometry x="281" y="349.9957142857143" width="120" height="60" as="geometry" />
        </mxCell>
        <mxCell id="-Wp_tUwX_cRNd32ZsQbs-22" value="&lt;div style=&quot;&quot;&gt;&lt;span style=&quot;background-color: initial; font-size: 10px;&quot;&gt;Status&lt;/span&gt;&lt;/div&gt;&lt;div style=&quot;&quot;&gt;&lt;span style=&quot;background-color: initial; font-size: 10px;&quot;&gt;(clarification)&lt;/span&gt;&lt;/div&gt;" style="rounded=0;whiteSpace=wrap;html=1;align=center;" vertex="1" parent="1">
          <mxGeometry x="281" y="429.9957142857143" width="120" height="60" as="geometry" />
        </mxCell>
        <mxCell id="-Wp_tUwX_cRNd32ZsQbs-24" style="edgeStyle=orthogonalEdgeStyle;rounded=0;orthogonalLoop=1;jettySize=auto;html=1;exitX=1;exitY=0.5;exitDx=0;exitDy=0;entryX=0.957;entryY=0.996;entryDx=0;entryDy=0;entryPerimeter=0;" edge="1" parent="1" source="-Wp_tUwX_cRNd32ZsQbs-22" target="-Wp_tUwX_cRNd32ZsQbs-12">
          <mxGeometry relative="1" as="geometry" />
        </mxCell>
        <mxCell id="-Wp_tUwX_cRNd32ZsQbs-25" value="Forwarded user" style="edgeLabel;html=1;align=center;verticalAlign=middle;resizable=0;points=[];" vertex="1" connectable="0" parent="-Wp_tUwX_cRNd32ZsQbs-24">
          <mxGeometry x="-0.4191" y="-2" relative="1" as="geometry">
            <mxPoint x="-1" y="-12" as="offset" />
          </mxGeometry>
        </mxCell>
        <mxCell id="-Wp_tUwX_cRNd32ZsQbs-27" value="Approval flow" style="text;html=1;strokeColor=none;fillColor=none;align=center;verticalAlign=middle;whiteSpace=wrap;rounded=0;" vertex="1" parent="1">
          <mxGeometry x="491" y="340" width="120" height="30" as="geometry" />
        </mxCell>
        <mxCell id="-Wp_tUwX_cRNd32ZsQbs-31" style="edgeStyle=orthogonalEdgeStyle;rounded=0;orthogonalLoop=1;jettySize=auto;html=1;" edge="1" parent="1" source="-Wp_tUwX_cRNd32ZsQbs-29">
          <mxGeometry relative="1" as="geometry">
            <mxPoint x="90" y="370" as="targetPoint" />
          </mxGeometry>
        </mxCell>
        <mxCell id="-Wp_tUwX_cRNd32ZsQbs-29" value="Approver" style="rounded=0;whiteSpace=wrap;html=1;" vertex="1" parent="1">
          <mxGeometry x="-120" y="340" width="120" height="60" as="geometry" />
        </mxCell>
      </root>
    </mxGraphModel>
  </diagram>
</mxfile>
